{"title":"12 Angry Men-720p MP4 AAC x264 BRRip 1957-CC","uid":7416397,"size":1931242615,"categoryP":"video","categoryS":"hd___movies","magnet":"?xt=urn:btih:b038ee69edf7362d7ab37daa0dcf2740f3c49453&amp;dn=12+Angry+Men-720p+MP4+AAC+x264+BRRip+1957-CC&amp;tr=udp%3A%2F%2Ftracker.openbittorrent.com%3A80&amp;tr=udp%3A%2F%2Fopen.demonii.com%3A1337&amp;tr=udp%3A%2F%2Ftracker.coppersurfer.tk%3A6969&amp;tr=udp%3A%2F%2Fexodus.desync.com%3A6969","seeders":1,"leechers":1,"uploader":"Caveman44","files":-1,"time":1341527990,"description":" &lt;a href=&quot;http://www.imdb.com/title/tt0050083/&quot; rel=&quot;nofollow&quot; target=&quot;_NEW&quot;&gt;http://www.imdb.com/title/tt0050083/&lt;/a&gt;\n\nSource: 12.Angry.Men.1957.720p.BluRay.x264-SiNNERS\n\nSubs: Arabic, Croatian, Danish, Dutch, English, Greek, Servian and Spanish.\n\nSample and Screens included.\n\nGeneral\nComplete name                    : 12 Angry Men-720p MP4 AAC x264 BRRip 1957-CC.mp4\nFormat                           : MPEG-4\nFormat profile                   : Base Media\nCodec ID                         : isom\nFile size                        : 1.77 GiB\nDuration                         : 1h 36mn\nOverall bit rate                 : 2 637 Kbps\nEncoded date                     : UTC 2012-06-18 19:26:08\n\nVideo\nID                               : 1\nFormat                           : AVC\nFormat/Info                      : Advanced Video Codec\nFormat profile                   : &lt;a class=&quot;__cf_email__&quot; href=&quot;/cdn-cgi/l/email-protection&quot; data-cfemail=&quot;7d35141a153d314e534c&quot;&gt;[email&amp;#160;protected]&lt;/a&gt;&lt;script cf-hash='f9e31' type=&quot;text/javascript&quot;&gt;\n/* &lt;![CDATA[ */!function(){try{var t=&quot;currentScript&quot;in document?document.currentScript:function(){for(var t=document.getElementsByTagName(&quot;script&quot;),e=t.length;e--;)if(t[e].getAttribute(&quot;cf-hash&quot;))return t[e]}();if(t&amp;&amp;t.previousSibling){var e,r,n,i,c=t.previousSibling,a=c.getAttribute(&quot;data-cfemail&quot;);if(a){for(e=&quot;&quot;,r=parseInt(a.substr(0,2),16),n=2;a.length-n;n+=2)i=parseInt(a.substr(n,2),16)^r,e+=String.fromCharCode(i);e=document.createTextNode(e),c.parentNode.replaceChild(e,c)}}}catch(u){}}();/* ]]&gt; */&lt;/script&gt;\nFormat settings, CABAC           : Yes\nFormat settings, ReFrames        : 5 frames\nCodec ID                         : avc1\nCodec ID/Info                    : Advanced Video Coding\nDuration                         : 1h 36mn\nBit rate mode                    : Variable\nBit rate                         : 2 472 Kbps\nNominal bit rate                 : 2 490 Kbps\nMaximum bit rate                 : 10.3 Mbps\nWidth                            : 1 200 pixels\nHeight                           : 720 pixels\nDisplay aspect ratio             : 1.667\nFrame rate mode                  : Variable\nFrame rate                       : 23.976 fps\nMinimum frame rate               : 19.048 fps\nMaximum frame rate               : 24.390 fps\nResolution                       : 24 bits\nColorimetry                      : 4:2:0\nScan type                        : Progressive\nBits/(Pixel*Frame)               : 0.119\nStream size                      : 1.66 GiB (94%)\nWriting library                  : x264 core 112\n\nAudio\nID                               : 2\nFormat                           : AAC\nFormat/Info                      : Advanced Audio Codec\nFormat version                   : Version 4\nFormat profile                   : LC\nFormat settings, SBR             : No\nFormat settings, PS              : Yes\nCodec ID                         : 40\nDuration                         : 1h 36mn\nBit rate mode                    : Variable\nBit rate                         : 160 Kbps\nMaximum bit rate                 : 193 Kbps\nChannel(s)                       : 2 channels\nChannel positions                : Front: L R\nSampling rate                    : 48.0 KHz\nResolution                       : 16 bits\nStream size                      : 110 MiB (6%)\nLanguage                         : English\n\nEnjoy...\n\nRequested by DreamExtractor","torrent":{"xt":"urn:btih:b038ee69edf7362d7ab37daa0dcf2740f3c49453","amp;dn":"12+Angry+Men-720p+MP4+AAC+x264+BRRip+1957-CC","amp;tr":["udp%3A%2F%2Ftracker.openbittorrent.com%3A80","udp%3A%2F%2Fopen.demonii.com%3A1337","udp%3A%2F%2Ftracker.coppersurfer.tk%3A6969","udp%3A%2F%2Fexodus.desync.com%3A6969"],"infoHash":"b038ee69edf7362d7ab37daa0dcf2740f3c49453","infoHashBuffer":{"type":"Buffer","data":[176,56,238,105,237,247,54,45,122,179,125,170,13,207,39,64,243,196,148,83]},"announce":[],"urlList":[]}}